PathFileType	4	(X/Y/Z)	C:/Users/beibeiliu/ov580/test_trc/User2\sequence.19_training_dense_left.trc
DataRate	CameraRate	NumFrames	NumMarkers	Units	OrigDataRate	OrigDataStartFrame	OrigNumFrames
120	120	15	19	mm	120	1	500
Frame#	Time	ThumbCMC			ThumbMCP			ThumbIP			ThumbTip			IndexMCP			IndexPIP			IndexTip			MiddleMCP			MiddlePIP			MiddleTip			RingMCP			RingPIP			RingTip			PinkyMCP			PinkyPIP			PinkyTip			BackHand1			BackHand2			BackHand3	
		X0	Y0	Z0	X1	Y1	Z1	X2	Y2	Z2	X3	Y3	Z3	X4	Y4	Z4	X5	Y5	Z5	X6	Y6	Z6	X7	Y7	Z7	X8	Y8	Z8	X9	Y9	Z9	X10	Y10	Z10	X11	Y11	Z11	X12	Y12	Z12	X13	Y13	Z13	X14	Y14	Z14	X15	Y15	Z15	X16	Y16	Z16	X17	Y17	Z17	X18	Y18	Z18	
0	0	-152.395	-11.2586	60.3679	-133.546	-21.1144	38.2478	-112.54	-28.0139	10.2898	-101.137	-37.1648	-13.5035	-169.668	-0.0341294	-21.4283	-161.22	-1.89068	-48.2196	-155.477	-6.29698	-81.2868	-197.238	-0.439091	-30.2565	-199.542	-4.19971	-62.6853	-202.786	-12.991	-94.2169	-221.556	-8.34562	-25.7035	-226.942	-11.7781	-48.8563	-230.925	-19.6408	-77.6303	-245.832	-18.4935	-4.11447	-254.248	-19.985	-24.6192	-261.543	-14.8968	-49.4691	-219.823	2.53765	29.8455	-220.388	9.10836	67.2563	-185.958	11.2246	45.74	
1	0.00833333	-156.646	-13.7671	58.6025	-135.37	-21.5662	37.3957	-120.774	-30.4623	9.74854	-105.005	-39.5312	-12.7879	-173.132	-2.28808	-22.7547	-165.576	-3.88976	-52.0667	-160.452	-8.83255	-81.7212	-199.816	-2.8076	-32.175	-201.738	-6.35846	-59.5127	-206.104	-15.469	-93.5358	-229.372	-10.7704	-22.2099	-229.789	-14.8974	-48.3562	-234.949	-23.1359	-81.6488	-245.635	-21.7847	0.203372	-259.953	-21.5214	-27.7359	-267.692	-17.0641	-45.5319	-224.937	-1.01026	34.6196	-222.289	7.82909	65.2972	-188.026	8.16413	44.5895	
2	0.0166667	-158.866	-16.4211	61.1786	-139.234	-24.4323	40.7744	-119.287	-32.8602	7.6122	-109.684	-42.2996	-8.31541	-169.92	-5.3946	-25.0418	-168.259	-7.76754	-49.1531	-159.336	-10.9704	-76.2232	-204.64	-5.4651	-28.1742	-204.498	-10.1512	-59.7628	-205.592	-17.539	-90.9316	-226.489	-13.0108	-19.9929	-233.065	-19.1522	-51.6447	-238.195	-26.8096	-79.3065	-249.905	-23.1811	0.411433	-261.845	-25.2179	-24.4576	-268.92	-22.1056	-45.7068	-227.924	-2.56003	34.9409	-223.614	4.18687	65.9735	-191.716	5.75271	48.1449	
3	0.025	-156.926	-17.0668	56.9156	-140.989	-26.4318	38.1236	-122.18	-35.216	10.0629	-109.946	-44.7718	-6.584	-174.111	-7.56404	-24.2782	-164.937	-9.0473	-51.4428	-166.065	-14.0653	-75.4697	-203.739	-7.37052	-26.2552	-206.398	-12.6275	-61.3608	-209.905	-21.0013	-90.9438	-227.889	-14.9338	-22.0518	-235.184	-21.1207	-49.5426	-236.794	-27.6499	-74.0696	-246.639	-25.7231	1.24678	-258.994	-25.9444	-24.3556	-270.637	-22.2944	-43.8712	-227.397	-5.22448	32.6936	-228.509	2.64966	65.6323	-191.479	4.51152	45.5261	
4	0.0333333	-161.764	-19.5638	61.0138	-140.061	-27.3724	36.789	-120.105	-36.3771	11.6458	-108.181	-46.0422	-8.21902	-172.718	-8.05103	-20.1459	-168.05	-9.89239	-46.4503	-162.343	-14.3925	-74.4393	-202.492	-7.63274	-31.5344	-204.423	-14.8221	-63.2001	-208.171	-21.8081	-89.3038	-233.213	-18.1249	-20.1887	-235.074	-22.6579	-50.7031	-240.14	-31.7475	-77.6218	-253.463	-27.8813	0.4982	-258.413	-28.9825	-23.2296	-271.838	-24.959	-43.9141	-229.021	-5.04841	33.7296	-223.582	2.34792	64.3806	-192.84	2.00035	45.9246	
5	0.0416667	-161.612	-20.1628	56.8724	-141.332	-27.8819	37.7241	-122.983	-36.8119	8.06693	-108.08	-46.6663	-9.31085	-172.729	-9.21517	-18.8678	-170.903	-11.7705	-50.9457	-163.594	-16.1393	-74.7029	-207.085	-10.4122	-30.3874	-205.847	-15.1133	-60.4612	-211.792	-24.2556	-90.1705	-234.423	-19.3401	-20.0789	-238.789	-24.8693	-49.8596	-241.983	-32.9365	-74.3512	-251.815	-28.2107	0.493017	-258.925	-31.0846	-21.3008	-272.689	-29.801	-43.8113	-226.051	-6.10984	37.126	-226.307	0.0920097	66.7156	-190.083	1.30198	47.147	
6	0.05	-158.895	-19.353	57.0443	-138.382	-27.7648	36.8465	-123.272	-38.6493	12.4919	-110.198	-46.9271	-8.13569	-175.899	-9.41035	-24.6794	-167.638	-11.8454	-46.7007	-165.492	-16.743	-75.4944	-207.823	-10.9726	-31.1304	-205.382	-15.4902	-58.3655	-209.463	-24.0136	-92.3544	-229.488	-18.8369	-18.6578	-237.232	-24.9679	-47.303	-238.886	-33.3131	-78.8901	-253.888	-29.6885	0.751759	-263.337	-31.9895	-26.037	-272.977	-30.8389	-45.9453	-224.695	-8.5763	37.3624	-227.654	-0.414356	68.3471	-193.435	2.51934	48.3589	
7	0.0583333	-157.968	-18.95	61.8243	-137.8	-28.1955	40.112	-117.954	-36.1727	9.23239	-105.066	-45.8244	-7.79672	-173.771	-8.33171	-23.2278	-165.184	-11.6445	-51.3168	-165.045	-15.6714	-75.7388	-204.701	-10.7131	-30.8738	-205.051	-15.9081	-59.2335	-204.429	-24.9548	-94.7587	-228.353	-18.6895	-20.1477	-238.3	-25.9678	-47.5295	-239.492	-34.2248	-74.874	-253.169	-28.9309	-1.75547	-259.949	-32.8562	-23.228	-271.998	-32.703	-49.405	-229.053	-8.8277	37.6605	-226.593	-0.952497	66.4983	-189.623	3.6086	47.3093	
8	0.0666667	-156.641	-20.0638	58.9356	-137.368	-28.4113	37.1065	-120.422	-36.6022	10.8068	-105.655	-44.8252	-11.7699	-172.06	-7.99685	-20.7923	-164.602	-10.3103	-51.9822	-157.399	-14.9875	-79.3173	-202.212	-9.35698	-27.4104	-205.772	-15.7303	-62.7901	-205.094	-24.3596	-92.2078	-228.688	-18.7997	-21.7495	-235.641	-25.4394	-47.3798	-234.476	-34.3906	-78.0009	-250.215	-30.003	2.21869	-257.63	-33.4339	-22.5581	-270.101	-33.5561	-47.2843	-224.602	-8.95932	35.7504	-225.247	-1.69354	69.5757	-189.424	1.09779	48.6723	
9	0.075	-157.493	-19.698	60.3657	-132.167	-26.7634	37.8379	-114.175	-34.151	12.7017	-105.744	-44.686	-8.01715	-169.13	-7.43088	-22.1503	-165.989	-9.13446	-47.7788	-159.88	-12.4926	-77.1926	-199.233	-8.0147	-30.1353	-199.993	-13.2561	-61.1917	-202.587	-23.3189	-91.2082	-224.084	-17.4971	-23.9738	-234.609	-24.4169	-46.4057	-233.982	-34.6544	-76.5188	-243.971	-29.432	0.559269	-257.616	-33.9197	-25.6991	-265.838	-34.1532	-47.8995	-225.966	-8.06681	35.984	-223.919	-0.603339	64.9793	-187.162	2.29682	49.0794	
10	0.0833333	-153.811	-18.0341	57.8785	-132.489	-26.0246	38.1135	-113.988	-34.3497	10.2396	-100.289	-42.7719	-10.0872	-169.427	-7.45917	-24.1792	-161.115	-8.87861	-49.1992	-158.163	-13.1909	-80.2238	-198.539	-8.12754	-32.6562	-198.714	-13.9208	-60.8551	-204.179	-23.7654	-91.7529	-227.963	-19.0435	-21.9983	-232.009	-24.3018	-47.895	-231.628	-33.828	-79.2091	-242.313	-29.3487	-1.18938	-254.741	-32.983	-26.6549	-263.402	-34.2871	-48.723	-223.995	-7.65528	35.3215	-221.579	-1.46481	63.1257	-187.704	3.19975	47.198	
11	0.0916667	-155.285	-20.0001	60.0439	-128.037	-25.694	39.6415	-110.248	-33.5035	11.5203	-101.636	-43.1585	-8.67695	-165.767	-6.37635	-24.7013	-158.808	-8.02062	-52.1473	-156.774	-12.0261	-77.1381	-196.439	-7.96963	-30.423	-199.15	-13.6061	-63.5322	-200.786	-23.3453	-96.0826	-224.241	-17.9152	-21.1363	-226.721	-23.2287	-48.566	-231.596	-32.2532	-76.3774	-240.913	-27.5791	-7.52486	-250.101	-32.9753	-26.3564	-264.277	-33.318	-50.3451	-221.969	-5.46277	32.4528	-222.064	0.0561776	64.3852	-182.556	1.64851	45.0018	
12	0.1	-154.429	-18.311	55.1583	-132.413	-26.9822	37.1932	-108.643	-33.8382	10.9252	-96.5399	-41.5374	-8.8483	-163.394	-5.50414	-26.1863	-155.544	-6.88869	-51.444	-153.884	-10.9128	-76.5409	-193.25	-7.35922	-33.165	-197.136	-13.5616	-65.6551	-200.446	-21.5078	-93.2106	-224.563	-17.1404	-23.5304	-224.495	-22.7721	-52.912	-229.038	-32.2103	-79.1559	-241.963	-28.6474	-3.3785	-250.353	-32.8483	-26.2982	-261.454	-31.3493	-52.7576	-216.245	-6.85421	30.0918	-218.073	-0.113598	65.69	-183.46	1.5772	46.7366	
13	0.108333	-152.353	-19.0662	58.9477	-127.589	-25.0663	36.4733	-108.707	-32.2974	8.63777	-96.8039	-41.908	-10.9605	-167.764	-5.62576	-23.7085	-158.88	-5.87677	-49.4513	-153.76	-10.5627	-80.894	-195.013	-6.72465	-35.1846	-195.211	-13.2009	-65.5676	-197.689	-21.4527	-93.134	-221.783	-16.6711	-26.4443	-225.712	-22.7858	-49.5305	-227.325	-31.9031	-78.2379	-239.984	-26.5634	-8.69016	-252.521	-32.6008	-31.9442	-259.471	-31.6231	-53.6568	-217.14	-7.09338	29.8734	-218.171	1.54552	62.6703	-183.559	4.4159	48.1888	
14	0.116667	-151.099	-17.2878	58.0264	-129.198	-24.9965	39.3929	-108.762	-32.6816	11.1015	-99.4353	-41.6815	-10.1524	-167.851	-4.97224	-26.7487	-160.866	-6.15378	-51.7035	-154.953	-11.2426	-80.5454	-194.071	-7.22193	-31.993	-194.726	-13.2389	-64.1415	-199.638	-23.5548	-98.2134	-221.422	-16.7404	-25.6739	-226.349	-23.1458	-52.0702	-226.347	-32.3971	-77.9143	-244.401	-27.7263	-7.44611	-252.121	-32.0562	-27.2092	-263.174	-31.2054	-54.4561	-221.513	-6.04274	32.7629	-217.493	-0.956155	62.1477	-185.144	3.52921	45.2828	
